<?xml version="1.0" standalone="no"?>
<!DOCTYPE svg PUBLIC "-//W3C//DTD SVG 20010904//EN"
 "http://www.w3.org/TR/2001/REC-SVG-20010904/DTD/svg10.dtd">
<svg version="1.0" xmlns="http://www.w3.org/2000/svg"
 width="500.000000pt" height="500.000000pt" viewBox="0 0 500.000000 500.000000"
 preserveAspectRatio="xMidYMid meet">

<g transform="translate(0.000000,500.000000) scale(0.100000,-0.100000)"
fill="#000000" stroke="none">
<path d="M3081 4283 c-20 -50 -41 -173 -41 -239 0 -80 24 -199 56 -280 13 -33
24 -63 24 -66 0 -3 -30 -8 -67 -12 -38 -4 -101 -14 -141 -22 l-73 -15 -142 70
c-154 76 -277 116 -416 133 -107 13 -333 5 -426 -15 -364 -80 -675 -286 -857
-567 -60 -93 -131 -260 -165 -388 -24 -87 -26 -116 -27 -277 l-1 -180 -110 0
-110 0 3 -85 c5 -135 47 -274 118 -386 18 -27 39 -66 47 -86 49 -116 175 -254
290 -317 42 -24 77 -46 77 -50 0 -4 -18 -20 -40 -37 -104 -76 -164 -204 -158
-338 l3 -79 -80 -51 c-44 -28 -106 -67 -138 -86 -33 -19 -75 -50 -95 -68 l-37
-32 40 6 c66 11 226 52 319 83 l87 29 74 -34 c169 -78 364 -65 685 45 168 57
320 113 449 165 63 25 118 46 123 46 4 0 37 13 73 30 36 17 70 30 74 30 5 0
54 18 108 41 208 86 232 93 318 90 93 -3 167 -15 145 -24 -99 -39 -393 -147
-420 -155 -87 -26 -191 -44 -217 -39 -39 8 -132 -14 -228 -53 -44 -17 -111
-43 -150 -57 -59 -22 -81 -37 -140 -97 -89 -91 -189 -205 -184 -210 6 -6 198
-44 276 -56 79 -11 80 -11 323 80 47 17 97 35 111 40 42 13 83 37 108 64 13
14 40 31 60 37 20 6 59 22 86 35 83 38 365 144 665 249 193 68 375 137 411
157 67 37 88 110 49 173 -11 17 -31 37 -46 43 l-26 12 60 65 c102 108 161 207
201 338 58 189 26 422 -82 594 -44 70 -137 166 -218 222 l-66 47 75 79 c240
255 236 253 310 264 74 12 176 40 237 66 71 30 213 116 220 133 9 25 -57 150
-114 213 -28 32 -71 69 -96 83 -25 15 -45 30 -45 33 0 4 11 34 24 67 56 142
102 436 77 499 -10 26 -13 27 -89 27 -222 0 -450 -82 -574 -205 l-46 -46 -54
65 c-61 73 -119 121 -195 159 -65 34 -185 67 -239 67 -36 0 -43 -4 -53 -27z
m335 -248 c50 -50 90 -131 105 -209 11 -62 3 -158 -11 -121 -4 11 -5 24 -2 29
3 5 0 6 -7 2 -6 -4 -9 -11 -6 -16 3 -5 0 -12 -6 -16 -8 -5 -10 -1 -7 14 3 11
0 29 -6 39 -7 10 -21 38 -30 63 -20 50 -90 152 -130 189 l-26 24 29 -54 c48
-90 95 -234 82 -256 -10 -17 -10 -17 -11 2 -1 18 -2 18 -10 -2 -10 -24 -25
-30 -35 -13 -9 15 -27 12 -19 -2 4 -7 -11 5 -33 27 -22 22 -45 51 -53 65 -12
24 -11 24 18 -4 17 -16 29 -33 26 -37 -3 -5 2 -6 10 -3 9 3 25 -5 39 -20 13
-14 27 -26 31 -26 14 0 4 23 -18 41 -52 41 -130 236 -136 339 -4 76 -7 75 83
28 45 -23 100 -61 123 -83z m771 59 c-15 -93 -101 -174 -205 -194 -32 -6 -81
-19 -109 -29 -29 -10 -53 -15 -53 -10 0 27 65 131 101 162 45 39 190 98 263
106 5 1 6 -15 3 -35z m-323 -91 c-14 -21 -43 -72 -64 -113 -25 -49 -48 -81
-66 -90 -15 -8 -58 -50 -96 -93 -37 -42 -68 -74 -68 -69 0 29 36 134 60 176
46 80 203 223 247 225 7 1 1 -15 -13 -36z m276 -157 c0 -28 -66 -101 -115
-128 -69 -38 -76 -35 -30 12 21 22 34 40 28 40 -7 0 -14 -4 -17 -9 -6 -10
-157 -77 -259 -115 l-67 -25 22 33 c47 67 167 156 251 187 65 23 187 26 187 5z
m-1794 -195 c95 -18 229 -65 268 -94 16 -12 10 -19 -54 -72 -73 -62 -134 -134
-165 -195 -10 -19 -18 -36 -19 -37 -1 -1 -24 5 -51 14 -35 11 -88 16 -175 16
-114 0 -133 -2 -222 -32 -112 -37 -185 -86 -278 -189 -106 -117 -163 -274
-164 -447 0 -55 6 -125 13 -155 16 -66 96 -234 123 -260 12 -11 17 -24 13 -31
-5 -8 -4 -10 3 -5 7 4 28 -8 50 -30 20 -20 29 -31 19 -24 -15 11 -20 10 -33
-9 -9 -12 -20 -18 -27 -14 -17 11 -30 11 -44 0 -9 -6 -13 -6 -13 2 0 6 5 11
11 11 5 0 7 5 3 12 -5 7 -3 8 7 2 17 -10 43 -15 34 -6 -4 4 -11 7 -16 7 -5 0
-8 5 -6 10 1 6 8 9 16 8 9 -1 10 2 2 10 -7 7 -15 6 -26 -3 -13 -11 -18 -11
-24 -1 -6 8 -12 3 -21 -18 -7 -17 -17 -28 -23 -24 -6 4 -8 0 -4 -10 3 -10 3
-17 -2 -17 -10 0 -24 39 -21 60 3 26 -11 4 -16 -25 -3 -20 -1 -25 8 -19 7 4
10 4 6 -1 -4 -4 -3 -17 3 -29 10 -20 10 -20 -5 -2 -14 18 -21 15 -17 -6 0 -5
-3 -8 -8 -8 -5 0 -7 19 -5 43 4 41 4 41 -6 10 -6 -18 -13 -33 -16 -33 -3 0 -3
8 1 19 3 12 0 21 -9 24 -10 4 -13 1 -9 -9 3 -7 0 -14 -6 -14 -6 0 -11 6 -11
14 0 8 -7 16 -15 20 -13 5 -14 2 -4 -16 7 -12 21 -30 33 -40 21 -17 21 -17 -6
-5 -15 6 -29 20 -32 29 -2 10 -9 18 -15 18 -6 0 -8 -8 -5 -17 5 -17 5 -17 -8
-1 -8 9 -23 16 -34 15 -12 -1 -19 4 -18 15 1 10 -2 15 -7 12 -12 -7 -40 21
-31 31 4 5 1 5 -5 1 -7 -4 -63 24 -132 65 l-120 72 -22 81 c-20 69 -23 104
-23 236 1 134 4 168 27 254 49 182 130 326 259 462 168 176 377 288 608 327
52 9 106 19 120 21 50 9 248 -4 346 -23z m1644 -70 c-41 -13 -113 -52 -138
-74 -12 -12 -35 -23 -50 -25 -15 -2 -52 -14 -82 -28 l-55 -25 40 41 c73 76
168 119 260 118 38 0 44 -1 25 -7z m131 -31 c76 -26 127 -60 168 -110 27 -33
29 -40 14 -40 -23 0 -197 42 -288 69 -38 12 -83 21 -100 21 l-30 0 25 20 c38
30 102 60 128 60 12 0 50 -9 83 -20z m-833 -50 c107 -26 252 -94 325 -153 31
-26 82 -67 112 -91 l54 -45 -134 -139 -134 -139 -69 67 c-126 124 -281 175
-414 136 -106 -30 -193 -144 -167 -214 13 -35 55 -78 88 -91 25 -10 195 -51
210 -51 5 0 48 38 97 84 49 47 90 81 92 76 6 -15 -39 -91 -79 -135 -40 -44
-38 -55 10 -55 17 0 96 77 134 130 l18 25 -7 -40 c-4 -28 -15 -48 -37 -66 -16
-14 -32 -35 -33 -46 -3 -18 5 -24 50 -37 87 -25 211 -93 271 -148 65 -59 128
-160 157 -250 27 -84 29 -257 4 -341 -11 -35 -22 -55 -28 -51 -7 4 -8 2 -4 -4
8 -13 -11 -53 -31 -65 -7 -5 -10 -14 -7 -20 5 -8 3 -8 -7 1 -21 19 -30 14 -25
-14 3 -15 2 -23 -2 -19 -4 3 -7 10 -7 13 -1 4 -6 17 -13 28 -6 12 -8 25 -4 30
4 5 -1 3 -10 -5 -9 -7 -15 -18 -12 -26 3 -7 1 -16 -5 -20 -7 -3 -8 0 -5 9 3 9
1 16 -5 16 -6 0 -11 6 -11 14 0 27 -16 25 -18 -1 -3 -36 -12 -43 -12 -10 0 15
-4 27 -10 27 -5 0 -10 -9 -10 -21 0 -11 -5 -17 -10 -14 -6 4 -8 11 -5 16 4 5
1 9 -5 9 -7 0 -9 9 -6 23 3 12 -5 0 -18 -26 -19 -39 -24 -44 -29 -27 -3 11 -1
18 4 14 5 -3 9 0 9 5 0 6 -2 11 -4 11 -2 0 -11 3 -19 6 -9 3 -17 -3 -21 -18
-5 -19 -8 -20 -16 -8 -5 8 -10 10 -10 4 0 -17 -45 -11 -46 6 -1 8 -2 24 -3 35
l-2 20 -9 -20 c-7 -16 -9 -17 -9 -3 -1 9 -5 19 -10 22 -5 4 -7 -4 -4 -16 3
-16 2 -19 -5 -10 -5 7 -15 12 -23 10 -8 -2 -14 4 -14 12 0 8 6 14 13 13 6 -2
12 2 12 7 0 6 13 28 29 51 55 76 51 200 -10 293 -50 75 -112 108 -302 158 -54
14 -51 16 -115 -79 -21 -30 -32 -39 -43 -33 -11 8 -8 21 18 74 18 36 29 67 25
69 -4 3 -63 21 -132 42 -69 20 -138 41 -155 46 -54 18 -189 23 -246 9 -80 -19
-171 -66 -233 -121 l-54 -49 -81 0 -81 0 0 175 0 175 248 0 249 0 -20 58 c-28
83 -21 252 15 339 34 81 124 201 184 245 166 121 406 167 612 118z m745 -94
c31 -13 87 -68 87 -86 0 -23 -133 -15 -185 11 -12 6 -27 11 -35 13 -31 6 -50
19 -50 33 0 8 -4 12 -9 8 -5 -3 -13 0 -17 6 -4 8 -3 9 4 5 7 -4 12 -3 12 3 0
22 145 28 193 7z m-1743 -456 l0 -30 -162 0 c-150 1 -161 2 -136 16 45 24 138
42 221 43 l77 1 0 -30z m831 -37 c-12 -20 -14 -14 -5 12 4 9 9 14 11 11 3 -2
0 -13 -6 -23z m279 -117 c0 -2 -8 -10 -17 -17 -16 -13 -17 -12 -4 4 13 16 21
21 21 13z m-1590 -166 c0 -19 -7 -20 -100 -20 -93 0 -100 1 -100 20 0 19 7 20
100 20 93 0 100 -1 100 -20z m0 -210 c0 -18 -7 -20 -79 -20 -70 0 -79 2 -84
20 -5 19 0 20 79 20 77 0 84 -2 84 -20z m836 1 c134 -26 249 -105 333 -230 42
-62 90 -199 98 -277 7 -61 -4 -147 -18 -139 -5 3 -6 -1 -3 -9 3 -8 -6 -37 -21
-65 -27 -49 -54 -72 -56 -48 -1 7 -5 -4 -9 -23 -7 -35 -7 -35 -9 -5 0 17 4 37
9 45 7 11 10 11 10 2 0 -7 4 -10 10 -7 6 4 6 12 -1 24 -9 13 -7 37 4 97 l16
79 -2 -62 c-2 -78 15 -66 32 21 15 80 14 122 -5 203 -17 73 -33 112 -34 81 0
-25 -18 -22 -40 5 -19 22 -19 21 -5 -27 19 -63 19 -110 0 -126 -12 -10 -23 -3
-66 44 -28 31 -55 56 -59 56 -4 0 -1 -23 7 -51 12 -42 13 -56 2 -75 -12 -23
-13 -22 -35 32 -72 178 -236 324 -408 364 l-69 16 48 32 c26 17 64 34 84 38
20 3 41 7 46 9 20 7 94 5 141 -4z m-238 -130 c69 -21 180 -92 233 -148 35 -36
143 -183 135 -183 -2 0 -20 7 -40 15 l-37 16 16 -31 c8 -16 20 -42 26 -56 8
-24 8 -25 -6 -14 -13 11 -14 9 -9 -18 5 -23 1 -33 -17 -46 -37 -26 -53 -19
-87 37 -18 28 -48 70 -68 92 l-36 40 20 -35 c25 -44 62 -140 62 -162 0 -9 -21
-28 -46 -43 l-46 -27 -26 24 c-25 21 -69 54 -99 71 -7 4 -1 -12 12 -35 14 -24
25 -52 25 -63 -1 -18 -2 -18 -22 5 -17 20 -20 21 -13 5 15 -37 17 -82 4 -90
-12 -8 -71 53 -63 66 7 12 -92 153 -141 201 -55 54 -143 93 -184 83 -24 -6
-23 -8 22 -25 27 -10 72 -36 100 -58 62 -47 187 -165 188 -178 1 -9 3 -21 15
-80 4 -21 1 -34 -10 -43 -9 -8 -18 -12 -20 -10 -1 2 -17 24 -34 49 -17 25 -47
63 -67 85 -32 34 -34 35 -15 8 11 -18 32 -63 45 -100 l24 -68 -27 -12 c-41
-18 -46 -16 -91 28 -42 43 -51 42 -26 -1 19 -33 19 -79 0 -86 -9 -4 -31 8 -55
30 -22 20 -42 36 -44 36 -2 0 3 -20 12 -45 13 -42 13 -47 -3 -65 -22 -25 -41
-25 -54 -2 -9 14 -10 11 -11 -16 0 -27 -6 -35 -36 -50 l-36 -17 -29 34 -28 34
2 -43 c2 -32 -2 -45 -17 -54 -15 -9 -20 -8 -24 4 -3 8 -32 42 -65 75 -33 33
-53 51 -45 40 21 -26 48 -92 48 -116 0 -10 -12 -26 -26 -36 -21 -13 -30 -14
-45 -5 -26 16 -27 16 -21 -15 4 -26 2 -24 -27 15 -17 23 -33 42 -36 42 -2 0 2
-17 10 -39 10 -28 10 -42 2 -50 -18 -18 -45 -13 -61 11 -16 22 -16 22 -16 -10
0 -26 -5 -35 -26 -43 -15 -5 -28 -8 -28 -7 -72 116 -97 144 -159 175 l-38 19
89 77 c48 43 106 90 128 105 21 15 70 57 109 95 61 59 75 67 108 67 64 0 147
-54 244 -159 29 -31 52 -51 52 -46 1 20 -110 159 -142 179 -18 11 -56 29 -85
42 l-53 21 102 94 c280 258 256 239 303 239 47 0 116 -31 179 -82 41 -32 62
-31 32 3 -31 33 -137 99 -173 105 -18 4 -32 10 -30 14 2 4 39 39 83 78 91 82
108 86 213 53z m652 0 c0 -15 -22 -71 -28 -71 -3 0 -14 8 -24 17 -18 16 -18
17 9 39 30 25 43 29 43 15z m-2216 -62 c134 -76 173 -104 254 -183 l73 -71
-28 50 -27 50 44 -35 c92 -72 149 -141 195 -232 57 -115 58 -135 3 -82 -61 58
-225 178 -278 204 l-45 22 73 -74 c39 -40 72 -77 72 -81 0 -9 -87 2 -110 14
-12 6 -16 2 -16 -17 0 -13 4 -24 8 -24 4 0 8 -6 8 -12 0 -16 67 -76 93 -84 14
-4 16 -8 7 -14 -32 -20 -208 121 -237 190 l-10 25 76 -3 76 -3 -70 39 c-78 44
-156 121 -200 196 -37 64 -78 176 -64 176 6 0 52 -23 103 -51z m2299 -6 c-24
-37 -67 -77 -70 -66 -4 10 78 105 85 99 2 -2 -5 -17 -15 -33z m-1254 -13 l36
-1 -23 -19 c-23 -19 -24 -19 -65 1 -55 28 -59 33 -18 25 18 -3 50 -6 70 -6z
m1411 -40 c0 -11 -107 -78 -143 -89 -61 -20 -63 -8 -6 36 30 23 67 56 84 73
l29 31 18 -23 c10 -13 18 -25 18 -28z m-1530 -102 c0 -8 -20 -22 -24 -17 -2 2
-7 14 -11 27 -6 22 -5 22 14 10 12 -7 21 -16 21 -20z m-45 -6 c-3 -3 -11 0
-18 7 -9 10 -8 11 6 5 10 -3 15 -9 12 -12z m1596 -199 c13 -17 13 -17 -6 -3
-11 8 -22 16 -24 17 -2 2 0 3 6 3 6 0 17 -8 24 -17z m89 3 c0 -2 -7 -6 -15
-10 -8 -3 -15 -1 -15 4 0 6 7 10 15 10 8 0 15 -2 15 -4z m-2325 -77 c11 -16 1
-19 -13 -3 -7 8 -8 14 -3 14 5 0 13 -5 16 -11z m1784 -44 l0 -20 -9 20 c-5 11
-9 29 -9 40 l0 20 9 -20 c5 -11 9 -29 9 -40z m17 -85 c18 0 19 -80 2 -101 -7
-8 -12 -12 -11 -10 1 2 -3 13 -8 24 -8 14 -8 22 2 27 19 12 19 38 1 36 -19 -1
-27 27 -16 52 6 15 8 14 11 -5 3 -13 11 -23 19 -23z m-36 -61 c0 -11 -4 -17
-10 -14 -5 3 -10 -1 -10 -9 0 -9 -5 -16 -11 -16 -19 0 8 59 29 60 1 0 2 -9 2
-21z m-35 -70 c-3 -5 1 -6 9 -3 9 3 13 11 10 16 -4 6 -1 9 6 6 31 -10 11 -37
-40 -53 -3 -1 -22 -10 -44 -19 -21 -9 -40 -15 -42 -13 -7 7 8 37 15 32 4 -2
24 1 44 7 27 8 34 15 32 30 -2 10 0 16 6 13 5 -4 7 -11 4 -16z m-158 -51 c-3
-8 -6 -5 -6 6 -1 11 2 17 5 13 3 -3 4 -12 1 -19z m1087 -30 c24 -34 20 -43
-24 -61 l-40 -15 -18 41 c-21 47 -15 57 35 57 22 0 37 -7 47 -22z m-1099 -14
c-11 -8 -25 -12 -32 -10 -7 3 -13 2 -13 -2 0 -7 -63 -42 -75 -42 -3 0 -5 10
-5 23 0 16 3 18 9 9 7 -11 11 -11 24 2 11 12 17 13 20 3 3 -7 6 -5 6 6 1 16
16 21 54 18 9 -1 17 3 17 10 0 7 3 9 7 5 5 -4 -1 -14 -12 -22z m973 -34 c12
-32 10 -34 -32 -44 -15 -4 -139 -49 -275 -100 -135 -52 -266 -100 -290 -107
-41 -12 -45 -12 -62 10 -11 13 -17 26 -14 30 2 5 91 40 197 79 106 39 247 92
313 116 66 24 127 45 137 45 9 1 20 -11 26 -29z m-2331 -46 c40 -20 103 -97
103 -128 0 -43 -45 -61 -71 -30 -12 15 -14 14 -19 -7 -6 -27 -43 -38 -64 -20
-10 9 -15 7 -19 -9 -3 -12 -13 -20 -26 -20 -12 0 -21 -5 -21 -11 0 -5 -4 -7
-10 -4 -5 3 -10 -2 -10 -11 0 -14 -8 -10 -35 16 -38 37 -41 34 -22 -19 15 -43
27 -58 61 -71 26 -9 36 -30 15 -30 -5 0 -7 5 -4 10 3 6 -2 10 -13 10 -10 0
-31 14 -47 30 -25 26 -30 40 -32 91 -3 72 15 114 76 177 46 47 79 53 138 26z
m1127 5 c-4 -8 1 -9 17 -4 40 13 17 -2 -29 -18 -48 -17 -55 -10 -14 15 34 20
35 21 26 7z m-156 -70 c-2 -6 -25 -19 -52 -29 l-48 -19 15 22 c8 12 30 25 48
28 19 4 36 7 37 8 2 0 2 -4 0 -10z m-123 -29 c-2 -28 -11 -35 -73 -59 -37 -15
-52 -17 -50 -9 3 7 14 14 26 16 14 2 19 8 16 20 -4 11 -3 13 3 6 10 -13 43
-14 43 -2 0 5 5 6 11 3 6 -4 10 -1 8 6 -3 24 1 39 9 39 5 0 8 -9 7 -20z m-171
-89 c6 -8 -74 -34 -82 -26 -4 4 55 32 70 34 4 1 9 -3 12 -8z m946 -20 c16 -32
12 -38 -32 -54 -24 -9 -74 -27 -113 -41 l-70 -25 -22 27 c-11 15 -19 29 -17
31 6 7 217 80 231 80 7 1 17 -8 23 -18z m-1155 -51 c3 -6 -1 -7 -9 -4 -18 7
-21 14 -7 14 6 0 13 -4 16 -10z m-25 -11 c12 -8 10 -9 -9 -4 -18 5 -22 4 -16
-6 6 -9 4 -11 -8 -6 -9 3 -18 1 -21 -6 -2 -7 -5 -5 -5 5 -1 14 9 21 39 27 3 0
12 -4 20 -10z m-145 -48 c-6 -5 -23 -12 -40 -15 l-30 -6 30 14 c35 18 54 20
40 7z m992 -17 c16 -25 16 -27 -3 -41 -10 -7 -19 -19 -19 -26 0 -6 -31 -23
-70 -38 -274 -105 -341 -129 -354 -124 -9 3 -12 3 -8 -1 19 -19 -120 -55 -175
-46 l-38 7 63 80 c35 44 70 85 78 91 11 8 231 95 299 117 8 3 59 6 112 6 95 1
98 0 115 -25z m-1079 3 c15 4 15 3 2 -6 -22 -15 -30 -14 -29 7 0 9 3 12 5 5 3
-7 13 -9 22 -6z m-283 -17 c3 -5 -1 -10 -9 -10 -9 0 -16 5 -16 10 0 6 4 10 9
10 6 0 13 -4 16 -10z m74 -9 c9 -6 5 -8 -13 -8 -15 0 -29 3 -32 8 -7 11 27 11
45 0z m68 -7 c-3 -3 -12 -4 -19 -1 -8 3 -5 6 6 6 11 1 17 -2 13 -5z"/>
<path d="M1335 2110 c-3 -5 -1 -10 4 -10 6 0 11 5 11 10 0 6 -2 10 -4 10 -3 0
-8 -4 -11 -10z"/>
<path d="M3425 1949 c-4 -6 -5 -12 -2 -15 2 -3 7 2 10 11 7 17 1 20 -8 4z"/>
<path d="M3458 1897 c-3 -14 0 -24 7 -24 7 0 10 10 7 24 -2 13 -6 23 -7 23 -1
0 -5 -10 -7 -23z"/>
<path d="M3677 1883 c-4 -3 -7 -11 -7 -17 0 -6 5 -5 12 2 6 6 9 14 7 17 -3 3
-9 2 -12 -2z"/>
<path d="M3729 1888 c-7 -24 -4 -34 10 -33 23 1 41 14 41 28 0 8 -3 8 -8 2
-10 -14 -46 -19 -37 -6 3 6 4 11 1 11 -3 0 -6 -1 -7 -2z"/>
<path d="M3007 1700 c-3 -11 -1 -20 4 -20 5 0 9 9 9 20 0 11 -2 20 -4 20 -2 0
-6 -9 -9 -20z"/>
</g>
</svg>
